<svg width="46" height="59" viewBox="0 0 46 59" fill="none" xmlns="http://www.w3.org/2000/svg">
<path fill-rule="evenodd" clip-rule="evenodd" d="M23.2351 43.7549L14.8892 36.8819L36.3749 26.9146L35.6137 38.0124L23.2351 43.7549Z" fill="#509E2F"/>
<path fill-rule="evenodd" clip-rule="evenodd" d="M14.8892 36.8819L23.2351 43.7549L35.6137 38.0124L36.3749 26.9146L14.8892 36.8819Z" fill="#509E2F"/>
<path fill-rule="evenodd" clip-rule="evenodd" d="M14.8892 36.8819L23.2351 43.7549L35.6137 38.0124L36.3749 26.9146L14.8892 36.8819Z" fill="#509E2F"/>
<path d="M37.652 22.0242L11.5685 34.1245C10.4509 32.8755 9.54058 30.9556 8.24787 31.3671C6.95517 31.7785 2.07655 34.0546 0.341648 35.1841C-1.39326 36.3136 4.03852 37.8294 4.14137 37.57C4.24423 37.3105 7.67812 35.9293 7.67812 35.9293L20.279 46.4156C20.279 46.4156 21.2206 47.3636 21.9087 47.6608C22.5967 47.958 23.0755 48.0559 24.08 47.6608L37.2544 41.5492C37.9028 41.2484 38.4244 40.8094 38.8193 40.2323C39.2141 39.6551 39.4369 38.9966 39.4877 38.2568L40.5151 24.0269C40.5522 23.2576 40.2538 22.6528 39.6198 22.2127C38.9858 21.7726 38.3299 21.7098 37.652 22.0242ZM23.2351 43.7549L14.8892 36.8819L36.3749 26.9146L35.6137 38.0124L23.2351 43.7549Z" fill="#509E2F"/>
<path d="M7.33259 2.75273C7.83593 2.75532 8.30688 2.79811 8.79461 2.89964C9.16841 2.97619 9.54265 3.08629 9.90529 3.22621C13.877 4.63016 18.0084 8.05195 19.8926 11.8576C21.8665 15.6217 22.5836 19.3061 23.1494 23.0706C23.2135 23.5117 23.2676 23.9416 23.3264 24.3911C23.3525 24.6097 23.3388 24.8381 23.2547 25.0433C23.1707 25.2484 23.0248 25.4126 22.837 25.5053C22.649 25.5979 22.4296 25.6141 22.2157 25.5557C22.0017 25.4974 21.8121 25.369 21.6546 25.215C21.334 24.8947 21.0263 24.5905 20.7156 24.2734C18.056 21.5922 15.6576 18.7164 13.3922 16.6216C11.1076 14.5104 9.16082 13.496 6.36351 12.4064C6.11205 12.3093 5.86071 12.1916 5.61568 12.0532C5.29497 11.8743 4.99666 11.6666 4.67758 11.4169C3.81419 10.7817 3.0466 9.97392 2.59959 8.99112C2.15236 8.00888 2.05906 6.94257 2.35798 5.96706C2.65691 4.99169 3.33128 4.16093 4.25189 3.59791C5.17281 3.03421 6.26147 2.79519 7.33259 2.75273Z" fill="#F5D99C"/>
<path d="M10.6915 26.1548C11.7482 27.0608 16.5562 27.937 17.4622 26.8803C18.3682 25.8236 15.0291 23.2342 13.9724 22.3282C12.9158 21.4222 11.3247 21.5444 10.4187 22.6011C9.51267 23.6578 9.63482 25.2488 10.6915 26.1548Z" fill="#94DE9F"/>
<path d="M30.6464 0.00747949C31.8452 -0.0634646 33.0542 0.372966 33.9873 1.20223C34.9204 2.03179 35.4953 3.18201 35.5652 4.38117C35.6363 5.58137 35.1968 6.73287 34.3634 7.59993C34.1784 7.78913 34.0062 7.98125 33.8439 8.17341C33.2772 8.84533 32.8032 9.54662 32.2898 10.2222C30.1321 12.9628 27.8619 16.9209 28.3285 21.6361C28.344 21.784 28.3681 21.9417 28.3923 22.083C28.4069 22.1586 28.4159 22.2198 28.4294 22.283C28.4325 22.3084 28.4398 22.3375 28.4294 22.3397C28.4263 22.3395 28.4213 22.3373 28.4135 22.3317C28.4041 22.3271 28.4054 22.3184 28.3153 22.2503C28.2672 22.2198 28.1981 22.1631 28.0188 22.1335C27.8492 22.09 27.5041 22.2078 27.3887 22.3954C27.1789 22.7517 27.2796 22.8058 27.2674 22.8521C27.2836 22.7094 27.3661 22.564 27.4772 22.4503C27.5895 22.3363 27.7219 22.2632 27.8639 22.245C28.0058 22.2268 28.1522 22.264 28.2896 22.3459C28.4258 22.4279 28.5424 22.5481 28.594 22.6822C28.5863 22.7649 28.6855 22.8424 28.4675 23.2096C28.3479 23.4025 27.9975 23.5222 27.8214 23.4778C27.6357 23.4471 27.5591 23.3858 27.5019 23.3486C27.392 23.2659 27.3714 23.2319 27.355 23.2194C27.3367 23.2013 27.3205 23.185 27.3055 23.1689C27.2419 23.0983 27.2086 23.0589 27.1727 23.0185C27.0947 22.924 27.0411 22.8634 26.9771 22.7804C26.8583 22.6314 26.7447 22.4759 26.64 22.3317C23.6172 18.1131 22.1204 11.6312 24.639 6.02019C25.2011 4.73762 25.9877 3.58537 26.8347 2.5085C27.0779 2.19889 27.3308 1.88942 27.5904 1.57836C28.3539 0.649155 29.4461 0.0774519 30.6464 0.00747949Z" fill="#F26767"/>
<circle cx="24.0239" cy="54.3208" r="3.7648" fill="#509E2F"/>
<circle cx="42.1766" cy="46.1555" r="3.7648" fill="#509E2F"/>
</svg>
